<?xml version="1.0" ?><!DOCTYPE svg  PUBLIC '-//W3C//DTD SVG 1.1//EN'  'http://www.w3.org/Graphics/SVG/1.1/DTD/svg11.dtd'><svg enable-background="new 0 0 100 100" height="100px" id="Layer_1" version="1.1" viewBox="0 0 100 100" width="100px" xml:space="preserve" xmlns="http://www.w3.org/2000/svg" xmlns:xlink="http://www.w3.org/1999/xlink"><path d="M50,4.871c-6.54,0-13.6,2.189-13.6,5.725v0.621v0.379v59.468h0.016c0,0.168,0.026,0.338,0.116,0.496L50,95.129  l13.468-23.568c0.091-0.158,0.116-0.328,0.116-0.496H63.6V11.596v-0.379v-0.621C63.6,7.061,56.54,4.871,50,4.871z M50,6.871  c5.488,0,9.436,1.469,10.936,2.725H39.064C40.564,8.34,44.512,6.871,50,6.871z M38.4,67.912V24.816h4.299v43.098h0.002  c-0.002,1.184-0.966,2.148-2.15,2.148c-1.184,0-2.148-0.965-2.148-2.15H38.4z M54.248,83.664h-8.496l-6.817-11.932  c0.497,0.213,1.043,0.33,1.616,0.33c1.267,0,2.389-0.584,3.15-1.48c0.762,0.896,1.884,1.48,3.15,1.48s2.387-0.584,3.148-1.48  c0.763,0.896,1.884,1.48,3.149,1.48c1.267,0,2.39-0.584,3.149-1.48c0.765,0.896,1.888,1.48,3.153,1.48  c0.572,0,1.117-0.117,1.613-0.328L54.248,83.664z M44.7,67.912V24.816H49v43.096c0,1.186-0.964,2.15-2.148,2.15  c-1.186,0-2.15-0.965-2.15-2.15H44.7z M51.002,67.912V24.816H55.3l0.001,43.098c-0.002,1.184-0.966,2.148-2.15,2.148  C51.965,70.062,51.002,69.098,51.002,67.912z M61.6,67.912c0,1.186-0.963,2.15-2.148,2.15s-2.15-0.965-2.15-2.15h-0.002V24.816H61.6  V67.912z M61.6,22.816H38.4v-1.15h23.2V22.816z M61.6,19.666H38.4v-8.07h23.2V19.666z"/></svg>